<svg width="232" height="135" viewBox="0 0 232 135" fill="none" xmlns="http://www.w3.org/2000/svg">
<path d="M110.423 0.0972942C111.41 -0.0356558 113.802 0.0426748 114.851 0.0145648C122.896 -0.201115 131.445 1.99201 138.6 5.70105C147.927 10.5753 155.393 18.3782 159.849 27.9089C161.393 31.2053 162.246 33.8419 163.343 37.29C164.147 36.7372 165.044 36.2157 165.955 35.8734C180.972 30.2248 199.454 38.9019 205.432 53.6171C208.006 59.9541 208.289 68.5634 205.658 74.8187C211.815 75.454 218.301 78.6828 222.701 83.0172C228.483 88.7132 231.723 96.4982 231.691 104.613C231.731 112.458 228.851 120.146 223.279 125.735C219.422 129.64 214.519 132.352 209.159 133.545C205.076 134.412 200.225 134.179 196.003 134.179L180.756 134.173L123.842 134.176L57.0102 134.173L38.2337 134.177C33.8531 134.177 28.3765 134.349 24.1856 133.652C19.3941 132.836 14.8869 130.821 11.0832 127.796C4.94531 122.865 1.02802 115.689 0.198784 107.86C-0.707956 100.06 1.51099 92.2186 6.37075 86.0489C11.2885 79.9599 18.4282 76.0774 26.214 75.2581C25.4128 68.8442 25.3693 63.2063 27.9819 57.2178C30.8451 50.7069 36.1985 45.6139 42.8457 43.0773C49.9578 40.2898 57.4384 39.8295 64.5012 42.9238C64.7246 40.9863 65.475 38.8557 66.0448 36.9849C72.3768 16.199 88.3909 2.02187 110.423 0.0972942Z" fill="#FDFBF0"/>
<path d="M94.6872 81.2107C94.6682 81.5308 95.2445 83.6705 95.354 84.1333C96.2161 87.6826 95.7642 91.4239 94.0818 94.6661C92.1815 98.2629 88.9202 100.95 85.0253 102.128C81.4052 103.22 77.2264 102.964 73.8715 101.154C70.368 99.2514 67.7621 96.0384 66.6248 92.2187C65.4948 88.3638 65.9489 84.2177 67.8869 80.6985C71.3684 74.3507 79.131 71.7432 85.8954 73.7496C86.836 74.0285 88.6492 74.9797 89.4597 74.7415C90.7224 77.7368 91.8273 79.4803 94.6872 81.2107Z" fill="#FF7300"/>
<path d="M153.572 73.1365L153.676 73.509C154.104 73.62 156.956 72.7444 157.757 72.6064C164.034 71.5093 170.342 74.3783 173.639 79.8302C175.708 83.2938 176.315 87.4373 175.328 91.3489C174.351 95.1755 171.868 98.4447 168.442 100.413C161.329 104.585 152.097 101.78 148.045 94.6715C146.784 92.4659 146.087 89.983 146.017 87.4435C145.99 86.5138 146.021 85.7107 146.14 84.7878C146.225 84.1292 146.743 82.4196 146.499 81.9214C150.752 80.325 152.425 77.2395 153.572 73.1365Z" fill="#FF7300"/>
<path d="M89.4584 74.7415C88.9564 73.032 87.2007 65.4606 92.0466 66.92C93.4162 67.3325 93.3036 70.4718 93.3938 71.4846C93.6152 77.1715 100.89 80.6276 104.24 75.1366C104.767 74.2637 105.135 73.3041 105.326 72.3025C105.67 70.4831 105.135 66.8263 107.989 67.005C108.397 67.0306 108.765 67.1299 109.11 67.3635C109.639 67.7198 109.998 68.2765 110.105 68.9044C110.597 71.7953 109.358 75.9855 107.645 78.3535C106.128 80.4822 103.816 81.9102 101.233 82.3154C98.8885 82.6839 96.7934 82.1996 94.686 81.2108C91.826 79.4803 90.7211 77.7369 89.4584 74.7415Z" fill="#231F1F"/>
<path d="M149.447 68.3828C150.114 67.3892 150.633 66.7984 151.949 67.0248C154.592 67.4787 153.832 71.2939 153.567 73.1354C152.42 77.2385 150.747 80.3239 146.493 81.9204C144.949 82.2913 143.831 82.4659 142.22 82.3405C139.465 82.1349 136.91 80.8286 135.13 78.7168C133.008 76.1784 132.118 72.8581 132.285 69.5828C132.362 68.0876 133.254 66.7694 134.925 67.019C137.5 67.4036 136.629 70.2462 137.018 72.0586C137.297 73.3542 137.638 74.5544 138.509 75.6101C140.443 78.0113 144.199 78.692 146.626 76.6335C149.234 74.4218 149.134 71.4428 149.447 68.3828Z" fill="#231F1F"/>
<path d="M127.39 81.0284C129.493 80.8548 130.771 81.5826 130.576 83.8923C130.182 88.5758 125.357 92.5663 120.688 92.2394C117.936 92.0467 115.854 90.766 114.057 88.7317C112.393 86.4095 110.985 81.9616 114.967 82.2532C117.389 82.4306 117.3 89.4043 122.834 87.316C126.584 85.9008 125.229 82.6994 127.267 81.123L127.39 81.0284Z" fill="#231F1F"/>
</svg>
